<mxfile host="app.diagrams.net" modified="2023-10-14T08:03:46.090Z" agent="Mozilla/5.0 (Windows NT 10.0; Win64; x64) AppleWebKit/537.36 (KHTML, like Gecko) Chrome/117.0.0.0 Safari/537.36 Edg/117.0.2045.60" etag="jTBFvrdGzf8ah4oJWwIy" version="22.0.4" type="device">
  <diagram name="Page-1" id="WlKA80rQBVQskUNP8jKp">
    <mxGraphModel dx="2522" dy="526" grid="0" gridSize="10" guides="1" tooltips="1" connect="1" arrows="1" fold="1" page="0" pageScale="1" pageWidth="850" pageHeight="1100" math="0" shadow="0">
      <root>
        <mxCell id="0" />
        <mxCell id="1" parent="0" />
        <mxCell id="Hk1tj4wDETk4GwIeOa13-1" value="&lt;font style=&quot;font-size: 14px;&quot;&gt;Branches:&lt;/font&gt;" style="text;html=1;strokeColor=none;fillColor=none;align=center;verticalAlign=middle;whiteSpace=wrap;rounded=0;" vertex="1" parent="1">
          <mxGeometry x="-429" y="449" width="60" height="30" as="geometry" />
        </mxCell>
        <mxCell id="Hk1tj4wDETk4GwIeOa13-74" value="&lt;font style=&quot;font-size: 14px;&quot;&gt;Environments:&lt;/font&gt;" style="text;html=1;strokeColor=none;fillColor=none;align=center;verticalAlign=middle;whiteSpace=wrap;rounded=0;" vertex="1" parent="1">
          <mxGeometry x="-442" y="862" width="60" height="30" as="geometry" />
        </mxCell>
        <mxCell id="Hk1tj4wDETk4GwIeOa13-83" value="dev" style="text;html=1;strokeColor=none;fillColor=none;align=center;verticalAlign=middle;whiteSpace=wrap;rounded=0;" vertex="1" parent="1">
          <mxGeometry x="-255" y="842" width="60" height="30" as="geometry" />
        </mxCell>
        <mxCell id="Hk1tj4wDETk4GwIeOa13-84" value="uat" style="text;html=1;strokeColor=none;fillColor=none;align=center;verticalAlign=middle;whiteSpace=wrap;rounded=0;" vertex="1" parent="1">
          <mxGeometry x="-98" y="842" width="60" height="30" as="geometry" />
        </mxCell>
        <mxCell id="Hk1tj4wDETk4GwIeOa13-85" value="prod" style="text;html=1;strokeColor=none;fillColor=none;align=center;verticalAlign=middle;whiteSpace=wrap;rounded=0;" vertex="1" parent="1">
          <mxGeometry x="80" y="842" width="60" height="30" as="geometry" />
        </mxCell>
        <mxCell id="Hk1tj4wDETk4GwIeOa13-86" value="" style="group" vertex="1" connectable="0" parent="1">
          <mxGeometry x="-285" y="465" width="413" height="264" as="geometry" />
        </mxCell>
        <mxCell id="Hk1tj4wDETk4GwIeOa13-2" value="" style="endArrow=none;html=1;rounded=0;" edge="1" parent="Hk1tj4wDETk4GwIeOa13-86" source="Hk1tj4wDETk4GwIeOa13-54">
          <mxGeometry width="50" height="50" relative="1" as="geometry">
            <mxPoint x="105" y="264" as="sourcePoint" />
            <mxPoint x="105" as="targetPoint" />
          </mxGeometry>
        </mxCell>
        <mxCell id="Hk1tj4wDETk4GwIeOa13-3" value="&lt;font style=&quot;font-size: 14px;&quot;&gt;develop&lt;/font&gt;" style="edgeLabel;html=1;align=center;verticalAlign=middle;resizable=0;points=[];" vertex="1" connectable="0" parent="Hk1tj4wDETk4GwIeOa13-2">
          <mxGeometry x="0.4015" y="-1" relative="1" as="geometry">
            <mxPoint x="-2" y="-23" as="offset" />
          </mxGeometry>
        </mxCell>
        <mxCell id="Hk1tj4wDETk4GwIeOa13-4" value="" style="endArrow=none;html=1;rounded=0;" edge="1" parent="Hk1tj4wDETk4GwIeOa13-86" source="Hk1tj4wDETk4GwIeOa13-51">
          <mxGeometry width="50" height="50" relative="1" as="geometry">
            <mxPoint x="408" y="264" as="sourcePoint" />
            <mxPoint x="408" as="targetPoint" />
          </mxGeometry>
        </mxCell>
        <mxCell id="Hk1tj4wDETk4GwIeOa13-5" value="&lt;font style=&quot;font-size: 14px;&quot;&gt;main&lt;/font&gt;" style="edgeLabel;html=1;align=center;verticalAlign=middle;resizable=0;points=[];" vertex="1" connectable="0" parent="Hk1tj4wDETk4GwIeOa13-4">
          <mxGeometry x="0.4015" y="-1" relative="1" as="geometry">
            <mxPoint x="-2" y="-20" as="offset" />
          </mxGeometry>
        </mxCell>
        <mxCell id="Hk1tj4wDETk4GwIeOa13-6" value="" style="endArrow=none;html=1;rounded=0;dashed=1;" edge="1" parent="Hk1tj4wDETk4GwIeOa13-86" source="Hk1tj4wDETk4GwIeOa13-14">
          <mxGeometry width="50" height="50" relative="1" as="geometry">
            <mxPoint x="6" y="264" as="sourcePoint" />
            <mxPoint x="6" as="targetPoint" />
          </mxGeometry>
        </mxCell>
        <mxCell id="Hk1tj4wDETk4GwIeOa13-7" value="&lt;font style=&quot;font-size: 14px;&quot;&gt;feature&lt;/font&gt;" style="edgeLabel;html=1;align=center;verticalAlign=middle;resizable=0;points=[];" vertex="1" connectable="0" parent="Hk1tj4wDETk4GwIeOa13-6">
          <mxGeometry x="0.4015" y="-1" relative="1" as="geometry">
            <mxPoint x="-1" y="-36" as="offset" />
          </mxGeometry>
        </mxCell>
        <mxCell id="Hk1tj4wDETk4GwIeOa13-9" value="" style="ellipse;whiteSpace=wrap;html=1;aspect=fixed;fillColor=#fa6800;fontColor=#000000;strokeColor=#C73500;" vertex="1" parent="Hk1tj4wDETk4GwIeOa13-86">
          <mxGeometry x="98" y="51" width="12" height="12" as="geometry" />
        </mxCell>
        <mxCell id="Hk1tj4wDETk4GwIeOa13-14" value="" style="ellipse;whiteSpace=wrap;html=1;aspect=fixed;fillColor=#76608a;fontColor=#ffffff;strokeColor=#432D57;" vertex="1" parent="Hk1tj4wDETk4GwIeOa13-86">
          <mxGeometry y="70" width="12" height="12" as="geometry" />
        </mxCell>
        <mxCell id="Hk1tj4wDETk4GwIeOa13-18" style="rounded=0;orthogonalLoop=1;jettySize=auto;html=1;exitX=0;exitY=0;exitDx=0;exitDy=0;entryX=1;entryY=0.5;entryDx=0;entryDy=0;" edge="1" parent="Hk1tj4wDETk4GwIeOa13-86" source="Hk1tj4wDETk4GwIeOa13-9" target="Hk1tj4wDETk4GwIeOa13-14">
          <mxGeometry relative="1" as="geometry" />
        </mxCell>
        <mxCell id="Hk1tj4wDETk4GwIeOa13-19" value="" style="ellipse;whiteSpace=wrap;html=1;aspect=fixed;fillColor=#76608a;fontColor=#ffffff;strokeColor=#432D57;" vertex="1" parent="Hk1tj4wDETk4GwIeOa13-86">
          <mxGeometry y="92" width="12" height="12" as="geometry" />
        </mxCell>
        <mxCell id="Hk1tj4wDETk4GwIeOa13-15" value="" style="endArrow=none;html=1;rounded=0;dashed=1;" edge="1" parent="Hk1tj4wDETk4GwIeOa13-86" source="Hk1tj4wDETk4GwIeOa13-19" target="Hk1tj4wDETk4GwIeOa13-14">
          <mxGeometry width="50" height="50" relative="1" as="geometry">
            <mxPoint x="6" y="264" as="sourcePoint" />
            <mxPoint x="6" as="targetPoint" />
          </mxGeometry>
        </mxCell>
        <mxCell id="Hk1tj4wDETk4GwIeOa13-22" value="" style="endArrow=none;html=1;rounded=0;dashed=1;" edge="1" parent="Hk1tj4wDETk4GwIeOa13-86" target="Hk1tj4wDETk4GwIeOa13-21">
          <mxGeometry width="50" height="50" relative="1" as="geometry">
            <mxPoint x="6" y="264" as="sourcePoint" />
            <mxPoint x="6" y="104" as="targetPoint" />
          </mxGeometry>
        </mxCell>
        <mxCell id="Hk1tj4wDETk4GwIeOa13-21" value="" style="ellipse;whiteSpace=wrap;html=1;aspect=fixed;fillColor=#76608a;fontColor=#ffffff;strokeColor=#432D57;" vertex="1" parent="Hk1tj4wDETk4GwIeOa13-86">
          <mxGeometry y="114" width="12" height="12" as="geometry" />
        </mxCell>
        <mxCell id="Hk1tj4wDETk4GwIeOa13-20" value="" style="endArrow=none;html=1;rounded=0;dashed=1;" edge="1" parent="Hk1tj4wDETk4GwIeOa13-86" source="Hk1tj4wDETk4GwIeOa13-21" target="Hk1tj4wDETk4GwIeOa13-19">
          <mxGeometry width="50" height="50" relative="1" as="geometry">
            <mxPoint x="6" y="264" as="sourcePoint" />
            <mxPoint x="6" y="82" as="targetPoint" />
          </mxGeometry>
        </mxCell>
        <mxCell id="Hk1tj4wDETk4GwIeOa13-24" value="" style="ellipse;whiteSpace=wrap;html=1;aspect=fixed;fillColor=#fa6800;fontColor=#000000;strokeColor=#C73500;" vertex="1" parent="Hk1tj4wDETk4GwIeOa13-86">
          <mxGeometry x="98" y="139" width="12" height="12" as="geometry" />
        </mxCell>
        <mxCell id="Hk1tj4wDETk4GwIeOa13-26" style="rounded=0;orthogonalLoop=1;jettySize=auto;html=1;exitX=1;exitY=0.5;exitDx=0;exitDy=0;entryX=0;entryY=0.5;entryDx=0;entryDy=0;" edge="1" parent="Hk1tj4wDETk4GwIeOa13-86" source="Hk1tj4wDETk4GwIeOa13-21" target="Hk1tj4wDETk4GwIeOa13-24">
          <mxGeometry relative="1" as="geometry" />
        </mxCell>
        <mxCell id="Hk1tj4wDETk4GwIeOa13-27" value="" style="endArrow=none;html=1;rounded=0;dashed=1;" edge="1" parent="Hk1tj4wDETk4GwIeOa13-86" source="Hk1tj4wDETk4GwIeOa13-29">
          <mxGeometry width="50" height="50" relative="1" as="geometry">
            <mxPoint x="202" y="264" as="sourcePoint" />
            <mxPoint x="202" as="targetPoint" />
          </mxGeometry>
        </mxCell>
        <mxCell id="Hk1tj4wDETk4GwIeOa13-28" value="&lt;font style=&quot;font-size: 14px;&quot;&gt;release&lt;/font&gt;" style="edgeLabel;html=1;align=center;verticalAlign=middle;resizable=0;points=[];" vertex="1" connectable="0" parent="Hk1tj4wDETk4GwIeOa13-27">
          <mxGeometry x="0.4015" y="-1" relative="1" as="geometry">
            <mxPoint x="-1" y="-62" as="offset" />
          </mxGeometry>
        </mxCell>
        <mxCell id="Hk1tj4wDETk4GwIeOa13-29" value="" style="ellipse;whiteSpace=wrap;html=1;aspect=fixed;fillColor=#6d8764;fontColor=#ffffff;strokeColor=#3A5431;" vertex="1" parent="Hk1tj4wDETk4GwIeOa13-86">
          <mxGeometry x="196" y="156" width="12" height="12" as="geometry" />
        </mxCell>
        <mxCell id="Hk1tj4wDETk4GwIeOa13-32" style="rounded=0;orthogonalLoop=1;jettySize=auto;html=1;exitX=1;exitY=1;exitDx=0;exitDy=0;entryX=0;entryY=0.5;entryDx=0;entryDy=0;" edge="1" parent="Hk1tj4wDETk4GwIeOa13-86" source="Hk1tj4wDETk4GwIeOa13-24" target="Hk1tj4wDETk4GwIeOa13-29">
          <mxGeometry relative="1" as="geometry" />
        </mxCell>
        <mxCell id="Hk1tj4wDETk4GwIeOa13-33" value="" style="ellipse;whiteSpace=wrap;html=1;aspect=fixed;fillColor=#6d8764;fontColor=#ffffff;strokeColor=#3A5431;" vertex="1" parent="Hk1tj4wDETk4GwIeOa13-86">
          <mxGeometry x="196" y="176" width="12" height="12" as="geometry" />
        </mxCell>
        <mxCell id="Hk1tj4wDETk4GwIeOa13-30" value="" style="endArrow=none;html=1;rounded=0;dashed=1;" edge="1" parent="Hk1tj4wDETk4GwIeOa13-86" source="Hk1tj4wDETk4GwIeOa13-33" target="Hk1tj4wDETk4GwIeOa13-29">
          <mxGeometry width="50" height="50" relative="1" as="geometry">
            <mxPoint x="202" y="264" as="sourcePoint" />
            <mxPoint x="202" as="targetPoint" />
          </mxGeometry>
        </mxCell>
        <mxCell id="Hk1tj4wDETk4GwIeOa13-36" value="" style="endArrow=none;html=1;rounded=0;dashed=1;" edge="1" parent="Hk1tj4wDETk4GwIeOa13-86" target="Hk1tj4wDETk4GwIeOa13-35">
          <mxGeometry width="50" height="50" relative="1" as="geometry">
            <mxPoint x="202" y="264" as="sourcePoint" />
            <mxPoint x="202" y="188" as="targetPoint" />
          </mxGeometry>
        </mxCell>
        <mxCell id="Hk1tj4wDETk4GwIeOa13-35" value="" style="ellipse;whiteSpace=wrap;html=1;aspect=fixed;fillColor=#6d8764;fontColor=#ffffff;strokeColor=#3A5431;" vertex="1" parent="Hk1tj4wDETk4GwIeOa13-86">
          <mxGeometry x="196" y="200" width="12" height="12" as="geometry" />
        </mxCell>
        <mxCell id="Hk1tj4wDETk4GwIeOa13-34" value="" style="endArrow=none;html=1;rounded=0;dashed=1;" edge="1" parent="Hk1tj4wDETk4GwIeOa13-86" source="Hk1tj4wDETk4GwIeOa13-35" target="Hk1tj4wDETk4GwIeOa13-33">
          <mxGeometry width="50" height="50" relative="1" as="geometry">
            <mxPoint x="202" y="264" as="sourcePoint" />
            <mxPoint x="202" y="168" as="targetPoint" />
          </mxGeometry>
        </mxCell>
        <mxCell id="Hk1tj4wDETk4GwIeOa13-38" value="" style="endArrow=none;html=1;rounded=0;" edge="1" parent="Hk1tj4wDETk4GwIeOa13-86" target="Hk1tj4wDETk4GwIeOa13-37">
          <mxGeometry width="50" height="50" relative="1" as="geometry">
            <mxPoint x="105" y="264" as="sourcePoint" />
            <mxPoint x="104" y="151" as="targetPoint" />
          </mxGeometry>
        </mxCell>
        <mxCell id="Hk1tj4wDETk4GwIeOa13-37" value="" style="ellipse;whiteSpace=wrap;html=1;aspect=fixed;fillColor=#fa6800;fontColor=#000000;strokeColor=#C73500;" vertex="1" parent="Hk1tj4wDETk4GwIeOa13-86">
          <mxGeometry x="98" y="218" width="12" height="12" as="geometry" />
        </mxCell>
        <mxCell id="Hk1tj4wDETk4GwIeOa13-25" value="" style="endArrow=none;html=1;rounded=0;" edge="1" parent="Hk1tj4wDETk4GwIeOa13-86" source="Hk1tj4wDETk4GwIeOa13-37" target="Hk1tj4wDETk4GwIeOa13-24">
          <mxGeometry width="50" height="50" relative="1" as="geometry">
            <mxPoint x="105" y="264" as="sourcePoint" />
            <mxPoint x="104" y="63" as="targetPoint" />
          </mxGeometry>
        </mxCell>
        <mxCell id="Hk1tj4wDETk4GwIeOa13-39" style="rounded=0;orthogonalLoop=1;jettySize=auto;html=1;exitX=0;exitY=0;exitDx=0;exitDy=0;entryX=1;entryY=0.5;entryDx=0;entryDy=0;" edge="1" parent="Hk1tj4wDETk4GwIeOa13-86" source="Hk1tj4wDETk4GwIeOa13-35" target="Hk1tj4wDETk4GwIeOa13-37">
          <mxGeometry relative="1" as="geometry" />
        </mxCell>
        <mxCell id="Hk1tj4wDETk4GwIeOa13-41" value="" style="endArrow=none;html=1;rounded=0;dashed=1;" edge="1" parent="Hk1tj4wDETk4GwIeOa13-86" source="Hk1tj4wDETk4GwIeOa13-62">
          <mxGeometry width="50" height="50" relative="1" as="geometry">
            <mxPoint x="306" y="264" as="sourcePoint" />
            <mxPoint x="306" as="targetPoint" />
          </mxGeometry>
        </mxCell>
        <mxCell id="Hk1tj4wDETk4GwIeOa13-42" value="&lt;font style=&quot;font-size: 14px;&quot;&gt;hotfix&lt;/font&gt;" style="edgeLabel;html=1;align=center;verticalAlign=middle;resizable=0;points=[];" vertex="1" connectable="0" parent="Hk1tj4wDETk4GwIeOa13-41">
          <mxGeometry x="0.4015" y="-1" relative="1" as="geometry">
            <mxPoint x="-2" y="-32" as="offset" />
          </mxGeometry>
        </mxCell>
        <mxCell id="Hk1tj4wDETk4GwIeOa13-55" value="" style="endArrow=none;html=1;rounded=0;" edge="1" parent="Hk1tj4wDETk4GwIeOa13-86" source="Hk1tj4wDETk4GwIeOa13-9" target="Hk1tj4wDETk4GwIeOa13-54">
          <mxGeometry width="50" height="50" relative="1" as="geometry">
            <mxPoint x="104" y="51" as="sourcePoint" />
            <mxPoint x="105" as="targetPoint" />
          </mxGeometry>
        </mxCell>
        <mxCell id="Hk1tj4wDETk4GwIeOa13-54" value="" style="ellipse;whiteSpace=wrap;html=1;aspect=fixed;fillColor=#fa6800;fontColor=#000000;strokeColor=#C73500;" vertex="1" parent="Hk1tj4wDETk4GwIeOa13-86">
          <mxGeometry x="98" y="28" width="12" height="12" as="geometry" />
        </mxCell>
        <mxCell id="Hk1tj4wDETk4GwIeOa13-58" style="rounded=0;orthogonalLoop=1;jettySize=auto;html=1;exitX=1;exitY=0;exitDx=0;exitDy=0;entryX=1;entryY=1;entryDx=0;entryDy=0;" edge="1" parent="Hk1tj4wDETk4GwIeOa13-86" source="Hk1tj4wDETk4GwIeOa13-51" target="Hk1tj4wDETk4GwIeOa13-54">
          <mxGeometry relative="1" as="geometry" />
        </mxCell>
        <mxCell id="Hk1tj4wDETk4GwIeOa13-60" value="" style="endArrow=none;html=1;rounded=0;" edge="1" parent="Hk1tj4wDETk4GwIeOa13-86" target="Hk1tj4wDETk4GwIeOa13-59">
          <mxGeometry width="50" height="50" relative="1" as="geometry">
            <mxPoint x="408" y="264" as="sourcePoint" />
            <mxPoint x="407" y="28" as="targetPoint" />
          </mxGeometry>
        </mxCell>
        <mxCell id="Hk1tj4wDETk4GwIeOa13-59" value="" style="ellipse;whiteSpace=wrap;html=1;aspect=fixed;fillColor=#dae8fc;strokeColor=#6c8ebf;gradientColor=#7ea6e0;" vertex="1" parent="Hk1tj4wDETk4GwIeOa13-86">
          <mxGeometry x="401" y="218" width="12" height="12" as="geometry" />
        </mxCell>
        <mxCell id="Hk1tj4wDETk4GwIeOa13-61" style="rounded=0;orthogonalLoop=1;jettySize=auto;html=1;exitX=1;exitY=0;exitDx=0;exitDy=0;entryX=0;entryY=1;entryDx=0;entryDy=0;" edge="1" parent="Hk1tj4wDETk4GwIeOa13-86" source="Hk1tj4wDETk4GwIeOa13-35" target="Hk1tj4wDETk4GwIeOa13-59">
          <mxGeometry relative="1" as="geometry" />
        </mxCell>
        <mxCell id="Hk1tj4wDETk4GwIeOa13-63" value="" style="endArrow=none;html=1;rounded=0;dashed=1;" edge="1" parent="Hk1tj4wDETk4GwIeOa13-86" target="Hk1tj4wDETk4GwIeOa13-62">
          <mxGeometry width="50" height="50" relative="1" as="geometry">
            <mxPoint x="306" y="264" as="sourcePoint" />
            <mxPoint x="306" as="targetPoint" />
          </mxGeometry>
        </mxCell>
        <mxCell id="Hk1tj4wDETk4GwIeOa13-68" value="" style="endArrow=none;html=1;rounded=0;" edge="1" parent="Hk1tj4wDETk4GwIeOa13-86" source="Hk1tj4wDETk4GwIeOa13-24" target="Hk1tj4wDETk4GwIeOa13-67">
          <mxGeometry width="50" height="50" relative="1" as="geometry">
            <mxPoint x="104" y="139" as="sourcePoint" />
            <mxPoint x="104" y="63" as="targetPoint" />
          </mxGeometry>
        </mxCell>
        <mxCell id="Hk1tj4wDETk4GwIeOa13-67" value="" style="ellipse;whiteSpace=wrap;html=1;aspect=fixed;fillColor=#fa6800;fontColor=#000000;strokeColor=#C73500;" vertex="1" parent="Hk1tj4wDETk4GwIeOa13-86">
          <mxGeometry x="98" y="95" width="12" height="12" as="geometry" />
        </mxCell>
        <mxCell id="Hk1tj4wDETk4GwIeOa13-12" value="" style="endArrow=none;html=1;rounded=0;" edge="1" parent="Hk1tj4wDETk4GwIeOa13-86" source="Hk1tj4wDETk4GwIeOa13-67" target="Hk1tj4wDETk4GwIeOa13-9">
          <mxGeometry width="50" height="50" relative="1" as="geometry">
            <mxPoint x="105" y="264" as="sourcePoint" />
            <mxPoint x="105" as="targetPoint" />
          </mxGeometry>
        </mxCell>
        <mxCell id="Hk1tj4wDETk4GwIeOa13-69" style="rounded=0;orthogonalLoop=1;jettySize=auto;html=1;exitX=0;exitY=0;exitDx=0;exitDy=0;entryX=1;entryY=0.5;entryDx=0;entryDy=0;" edge="1" parent="Hk1tj4wDETk4GwIeOa13-86" source="Hk1tj4wDETk4GwIeOa13-62" target="Hk1tj4wDETk4GwIeOa13-67">
          <mxGeometry relative="1" as="geometry" />
        </mxCell>
        <mxCell id="Hk1tj4wDETk4GwIeOa13-71" value="" style="endArrow=none;html=1;rounded=0;" edge="1" parent="Hk1tj4wDETk4GwIeOa13-86" source="Hk1tj4wDETk4GwIeOa13-59" target="Hk1tj4wDETk4GwIeOa13-70">
          <mxGeometry width="50" height="50" relative="1" as="geometry">
            <mxPoint x="407" y="218" as="sourcePoint" />
            <mxPoint x="407" y="28" as="targetPoint" />
          </mxGeometry>
        </mxCell>
        <mxCell id="Hk1tj4wDETk4GwIeOa13-70" value="" style="ellipse;whiteSpace=wrap;html=1;aspect=fixed;fillColor=#dae8fc;strokeColor=#6c8ebf;gradientColor=#7ea6e0;" vertex="1" parent="Hk1tj4wDETk4GwIeOa13-86">
          <mxGeometry x="399" y="92" width="12" height="12" as="geometry" />
        </mxCell>
        <mxCell id="Hk1tj4wDETk4GwIeOa13-52" value="" style="endArrow=none;html=1;rounded=0;" edge="1" parent="Hk1tj4wDETk4GwIeOa13-86" source="Hk1tj4wDETk4GwIeOa13-70" target="Hk1tj4wDETk4GwIeOa13-51">
          <mxGeometry width="50" height="50" relative="1" as="geometry">
            <mxPoint x="408" y="264" as="sourcePoint" />
            <mxPoint x="408" as="targetPoint" />
          </mxGeometry>
        </mxCell>
        <mxCell id="Hk1tj4wDETk4GwIeOa13-72" style="rounded=0;orthogonalLoop=1;jettySize=auto;html=1;exitX=0;exitY=0;exitDx=0;exitDy=0;entryX=0;entryY=0;entryDx=0;entryDy=0;" edge="1" parent="Hk1tj4wDETk4GwIeOa13-86" source="Hk1tj4wDETk4GwIeOa13-62" target="Hk1tj4wDETk4GwIeOa13-70">
          <mxGeometry relative="1" as="geometry" />
        </mxCell>
        <mxCell id="Hk1tj4wDETk4GwIeOa13-62" value="" style="ellipse;whiteSpace=wrap;html=1;aspect=fixed;fillColor=#f8cecc;strokeColor=#b85450;gradientColor=#ea6b66;" vertex="1" parent="Hk1tj4wDETk4GwIeOa13-86">
          <mxGeometry x="299" y="58" width="12" height="12" as="geometry" />
        </mxCell>
        <mxCell id="Hk1tj4wDETk4GwIeOa13-51" value="" style="ellipse;whiteSpace=wrap;html=1;aspect=fixed;fillColor=#dae8fc;strokeColor=#6c8ebf;gradientColor=#7ea6e0;" vertex="1" parent="Hk1tj4wDETk4GwIeOa13-86">
          <mxGeometry x="401" y="16" width="12" height="12" as="geometry" />
        </mxCell>
        <mxCell id="Hk1tj4wDETk4GwIeOa13-66" style="rounded=0;orthogonalLoop=1;jettySize=auto;html=1;exitX=1;exitY=0;exitDx=0;exitDy=0;entryX=1;entryY=0;entryDx=0;entryDy=0;" edge="1" parent="Hk1tj4wDETk4GwIeOa13-86" source="Hk1tj4wDETk4GwIeOa13-51" target="Hk1tj4wDETk4GwIeOa13-62">
          <mxGeometry relative="1" as="geometry" />
        </mxCell>
        <mxCell id="Hk1tj4wDETk4GwIeOa13-96" style="edgeStyle=orthogonalEdgeStyle;rounded=0;orthogonalLoop=1;jettySize=auto;html=1;exitX=0.5;exitY=0;exitDx=0;exitDy=0;entryX=0.5;entryY=1;entryDx=0;entryDy=0;" edge="1" parent="1" source="Hk1tj4wDETk4GwIeOa13-87" target="Hk1tj4wDETk4GwIeOa13-90">
          <mxGeometry relative="1" as="geometry" />
        </mxCell>
        <mxCell id="Hk1tj4wDETk4GwIeOa13-87" value="environment-resources" style="rounded=1;whiteSpace=wrap;html=1;" vertex="1" parent="1">
          <mxGeometry x="-303" y="1034" width="157" height="110" as="geometry" />
        </mxCell>
        <mxCell id="Hk1tj4wDETk4GwIeOa13-94" style="rounded=0;orthogonalLoop=1;jettySize=auto;html=1;exitX=0.5;exitY=0;exitDx=0;exitDy=0;entryX=0.25;entryY=1;entryDx=0;entryDy=0;" edge="1" parent="1" source="Hk1tj4wDETk4GwIeOa13-88" target="Hk1tj4wDETk4GwIeOa13-91">
          <mxGeometry relative="1" as="geometry" />
        </mxCell>
        <mxCell id="Hk1tj4wDETk4GwIeOa13-88" value="environment-resources" style="rounded=1;whiteSpace=wrap;html=1;" vertex="1" parent="1">
          <mxGeometry x="-130" y="1034" width="157" height="110" as="geometry" />
        </mxCell>
        <mxCell id="Hk1tj4wDETk4GwIeOa13-89" value="environment-resources" style="rounded=1;whiteSpace=wrap;html=1;" vertex="1" parent="1">
          <mxGeometry x="43" y="1034" width="157" height="110" as="geometry" />
        </mxCell>
        <mxCell id="Hk1tj4wDETk4GwIeOa13-90" value="shared-nonprod-resources" style="rounded=1;whiteSpace=wrap;html=1;" vertex="1" parent="1">
          <mxGeometry x="-303" y="934" width="157" height="51" as="geometry" />
        </mxCell>
        <mxCell id="Hk1tj4wDETk4GwIeOa13-92" value="" style="endArrow=none;dashed=1;html=1;dashPattern=1 3;strokeWidth=2;rounded=0;" edge="1" parent="1">
          <mxGeometry width="50" height="50" relative="1" as="geometry">
            <mxPoint x="-138" y="1180" as="sourcePoint" />
            <mxPoint x="-138" y="842" as="targetPoint" />
          </mxGeometry>
        </mxCell>
        <mxCell id="Hk1tj4wDETk4GwIeOa13-93" value="" style="endArrow=none;dashed=1;html=1;dashPattern=1 3;strokeWidth=2;rounded=0;" edge="1" parent="1">
          <mxGeometry width="50" height="50" relative="1" as="geometry">
            <mxPoint x="35" y="1180" as="sourcePoint" />
            <mxPoint x="35" y="842" as="targetPoint" />
          </mxGeometry>
        </mxCell>
        <mxCell id="Hk1tj4wDETk4GwIeOa13-91" value="shared-prod-resources" style="rounded=1;whiteSpace=wrap;html=1;" vertex="1" parent="1">
          <mxGeometry x="-44" y="934" width="157" height="51" as="geometry" />
        </mxCell>
        <mxCell id="Hk1tj4wDETk4GwIeOa13-95" style="rounded=0;orthogonalLoop=1;jettySize=auto;html=1;exitX=0.5;exitY=0;exitDx=0;exitDy=0;entryX=0.703;entryY=0.997;entryDx=0;entryDy=0;entryPerimeter=0;" edge="1" parent="1" source="Hk1tj4wDETk4GwIeOa13-89" target="Hk1tj4wDETk4GwIeOa13-91">
          <mxGeometry relative="1" as="geometry" />
        </mxCell>
        <mxCell id="Hk1tj4wDETk4GwIeOa13-97" value="" style="shape=flexArrow;endArrow=classic;html=1;rounded=0;fillColor=none;strokeColor=#2D7600;" edge="1" parent="1">
          <mxGeometry width="50" height="50" relative="1" as="geometry">
            <mxPoint x="-185" y="742" as="sourcePoint" />
            <mxPoint x="-219" y="828" as="targetPoint" />
          </mxGeometry>
        </mxCell>
        <mxCell id="Hk1tj4wDETk4GwIeOa13-101" value="deploy" style="edgeLabel;html=1;align=center;verticalAlign=middle;resizable=0;points=[];" vertex="1" connectable="0" parent="Hk1tj4wDETk4GwIeOa13-97">
          <mxGeometry x="-0.2275" y="1" relative="1" as="geometry">
            <mxPoint as="offset" />
          </mxGeometry>
        </mxCell>
        <mxCell id="Hk1tj4wDETk4GwIeOa13-98" value="" style="shape=flexArrow;endArrow=classic;html=1;rounded=0;fillColor=none;strokeColor=#2D7600;" edge="1" parent="1">
          <mxGeometry width="50" height="50" relative="1" as="geometry">
            <mxPoint x="119" y="733" as="sourcePoint" />
            <mxPoint x="-62" y="831" as="targetPoint" />
          </mxGeometry>
        </mxCell>
        <mxCell id="Hk1tj4wDETk4GwIeOa13-102" value="deploy" style="edgeLabel;html=1;align=center;verticalAlign=middle;resizable=0;points=[];" vertex="1" connectable="0" parent="Hk1tj4wDETk4GwIeOa13-98">
          <mxGeometry x="-0.0419" y="-2" relative="1" as="geometry">
            <mxPoint as="offset" />
          </mxGeometry>
        </mxCell>
        <mxCell id="Hk1tj4wDETk4GwIeOa13-99" value="" style="shape=flexArrow;endArrow=classic;html=1;rounded=0;fillColor=none;strokeColor=#2D7600;" edge="1" parent="1">
          <mxGeometry width="50" height="50" relative="1" as="geometry">
            <mxPoint x="-4.5" y="901.58" as="sourcePoint" />
            <mxPoint x="73.5" y="901.58" as="targetPoint" />
          </mxGeometry>
        </mxCell>
        <mxCell id="Hk1tj4wDETk4GwIeOa13-103" value="deploy" style="edgeLabel;html=1;align=center;verticalAlign=middle;resizable=0;points=[];" vertex="1" connectable="0" parent="Hk1tj4wDETk4GwIeOa13-99">
          <mxGeometry x="-0.5726" y="1" relative="1" as="geometry">
            <mxPoint x="19" y="6" as="offset" />
          </mxGeometry>
        </mxCell>
        <mxCell id="Hk1tj4wDETk4GwIeOa13-100" value="confirmation" style="shape=callout;whiteSpace=wrap;html=1;perimeter=calloutPerimeter;" vertex="1" parent="1">
          <mxGeometry x="-12" y="845" width="98" height="54" as="geometry" />
        </mxCell>
      </root>
    </mxGraphModel>
  </diagram>
</mxfile>
